<?xml version="1.0" encoding="UTF-8"?>
<svg xmlns="http://www.w3.org/2000/svg" version="1.1" viewBox="0 0 512 511.97">
  <!-- Generator: Adobe Illustrator 29.4.0, SVG Export Plug-In . SVG Version: 2.1.0 Build 152)  -->
  <g id="Layer_1" image-rendering="optimizeQuality" shape-rendering="geometricPrecision" text-rendering="geometricPrecision">
    <path d="M138.85,214.68l61.34-.81,4.56,1.19c21.53,12.41,40.78,27.9,57.46,46.31,22.01-35.41,45.45-67.92,70.22-97.82,27.13-32.77,55.92-62.49,86.16-89.62l5.99-2.3h66.93l-13.49,14.99c-41.49,46.09-79.12,93.72-113.11,142.85-34.02,49.17-64.43,99.92-91.47,152.16l-8.41,16.23-7.74-16.53c-28.23-60.59-68.03-112.19-123.46-150.24l5-16.39h0ZM255.98,0c38.44,0,76.18,8.56,110.83,25.2,2.24,1.07,3.19,3.78,2.12,6.02-.3.62-.74,1.17-1.27,1.6l-37.54,30.72c-1.3,1.09-3.1,1.37-4.67.72-22.25-8.06-45.75-12.11-69.42-12.11-54.27,0-105.77,21.29-144.13,59.69-38.39,38.41-59.7,89.83-59.7,144.14s21.29,105.74,59.69,144.12c38.42,38.4,89.83,59.71,144.15,59.71s105.8-21.31,144.12-59.7c38.41-38.39,59.7-89.84,59.7-144.13,0-13.2-1.21-26.2-3.75-39.16-.26-1.37.12-2.78,1.03-3.84l33.11-41.96c1.56-1.94,4.42-2.23,6.36-.66.7.57,1.22,1.33,1.48,2.2,9.25,26.83,13.92,55.05,13.92,83.42,0,68.03-26.87,132.88-74.98,180.99s-112.98,74.99-180.99,74.99-132.88-26.88-180.99-74.99l-.18-.19C26.81,388.67,0,323.97,0,255.98S26.87,123.1,74.98,74.99l.2-.18C123.29,26.81,188.02,0,255.98,0Z"/>
  </g>
</svg>